<svg width="23" height="33" viewBox="0 0 23 33" fill="none" xmlns="http://www.w3.org/2000/svg">
<path d="M11.4745 33C5.15078 33 0 27.7912 0 21.3447C0 16.7032 5.81375 6.69824 9.2816 1.2316C10.0466 -0.00613447 11.6785 -0.367139 12.9024 0.406442C13.2084 0.61273 13.5144 0.922163 13.7184 1.2316C17.1863 6.74981 23 16.7032 23 21.3447C22.898 27.7912 17.7982 33 11.4745 33ZM11.4745 2.10832C11.3215 2.10832 11.1175 2.21147 11.0665 2.36618C5.45676 11.2882 2.14191 18.4051 2.14191 21.3447C2.14191 26.5535 6.32372 30.834 11.4745 30.834C16.6253 30.834 20.8581 26.6051 20.8581 21.3447C20.8581 18.3535 17.5432 11.2882 11.9335 2.36618C11.8315 2.21147 11.5765 2.10832 11.4745 2.10832Z" fill="white"/>
</svg>
