<svg width="43" height="34" viewBox="0 0 43 34" fill="none" xmlns="http://www.w3.org/2000/svg">
<path d="M29.3574 19.2136C29.2207 19.2136 29.0866 19.2109 28.9515 19.2045L0.895975 19.2136C0.401596 19.2136 0.00194747 18.806 0.00194747 18.3019C0.00194747 17.7985 0.401596 17.3901 0.895975 17.3901L28.991 17.3819C29.1385 17.3874 29.2475 17.3901 29.3584 17.3901C33.5674 17.3901 36.9914 13.8982 36.9914 9.60588C36.9914 5.31442 33.5673 1.8225 29.3584 1.8225C25.1503 1.8225 21.7263 5.31442 21.7263 9.60588C21.7263 10.6616 21.93 11.6846 22.3297 12.6456C22.5237 13.1096 22.3109 13.6448 21.8577 13.8417C21.4027 14.0405 20.877 13.8226 20.6848 13.3604C20.1896 12.1724 19.9383 10.9097 19.9383 9.60688C19.9383 4.30976 24.1643 0 29.3585 0C34.5527 0 38.7796 4.31061 38.7796 9.60688C38.7784 14.904 34.5516 19.2136 29.3574 19.2136ZM43 27.3909C43 23.746 40.0927 20.7809 36.5184 20.7809C36.4245 20.7809 36.3316 20.7827 36.2771 20.7864L0.895002 20.7809C0.401457 20.7809 0.000973735 21.1885 0.000973735 21.6926C0.000973735 22.196 0.401457 22.6044 0.895002 22.6044L36.3154 22.6089L36.5184 22.6044C39.1066 22.6044 41.2119 24.7515 41.2119 27.3909C41.2119 30.0304 39.1066 32.1775 36.5184 32.1775C33.9302 32.1775 31.8249 30.0304 31.8249 27.3909C31.8249 26.7409 31.9501 26.1128 32.1959 25.5219C32.3899 25.0587 32.1771 24.5226 31.7239 24.3257C31.2697 24.127 30.745 24.343 30.5509 24.8071C30.2094 25.6239 30.0369 26.4938 30.0369 27.39C30.0369 31.0349 32.9442 34 36.5185 34C40.0927 34 43 31.0359 43 27.3909ZM0.895002 15.6525L11.3736 15.6488L11.5784 15.6525C14.4366 15.6525 16.7627 13.2801 16.7627 10.3654C16.7627 7.45072 14.4365 5.07837 11.5784 5.07837C8.71938 5.07837 6.39313 7.45072 6.39313 10.3654C6.39313 11.082 6.53084 11.7776 6.80432 12.4323C6.9974 12.8955 7.52405 13.1089 7.97725 12.9137C8.43143 12.7158 8.64329 12.1807 8.44924 11.7175C8.27132 11.2899 8.18104 10.8358 8.18104 10.3654C8.18104 8.45538 9.70438 6.90171 11.5783 6.90171C13.4512 6.90171 14.9747 8.45524 14.9747 10.3654C14.9747 12.2756 13.4513 13.8291 11.5783 13.8291L11.3933 13.8254L0.894028 13.8291C0.400483 13.8291 0 14.2375 0 14.7409C0.000973735 15.2449 0.401596 15.6525 0.895002 15.6525ZM14.4544 25.3778C14.4544 24.8736 14.0548 24.466 13.5604 24.466H0.895002C0.401457 24.466 0.000973735 24.8736 0.000973735 25.3778C0.000973735 25.882 0.401457 26.2895 0.895002 26.2895H13.5604C14.0548 26.2895 14.4544 25.882 14.4544 25.3778Z" fill="white"/>
</svg>
